/* XPM */
static char *_0fad9da8d474bf7810004b6252e2b73RsoLq7NkuT3hALfz[] = {
/* columns rows colors chars-per-pixel */
"32 32 143 2 ",
"   c None",
".  c #F6D735",
"X  c #F6D738",
"o  c #F6D638",
"O  c #F5D737",
"+  c #F6D737",
"@  c #F9D634",
"#  c #F5D737",
"$  c #F6D636",
"%  c #F5D334",
"&  c #F5D133",
"*  c #F4CF32",
"=  c #F9D933",
"-  c #F6D939",
";  c #F5D637",
":  c #F4CD30",
">  c #F4D03C",
",  c #F5D345",
"<  c #F5D64F",
"1  c #F5D64E",
"2  c #F5D447",
"3  c #F3CE36",
"4  c #F5D738",
"5  c #F9D837",
"6  c #F8DB33",
"7  c #F5D737",
"8  c #F4D334",
"9  c #F4CD34",
"0  c #F6D752",
"q  c #F4D140",
"w  c #F4CE38",
"e  c #F3CC31",
"r  c #F4CE37",
"t  c #F5D242",
"y  c #F5D243",
"u  c #F0C532",
"i  c #F3CD32",
"p  c #F5D737",
"a  c #F8DC39",
"s  c #F6D637",
"d  c #F5D535",
"f  c #F4CF37",
"g  c #F7D958",
"h  c #F4D13F",
"j  c #F3CC30",
"k  c #ECBF30",
"l  c #DFAC32",
"z  c #F3CE3A",
"x  c #EDBE31",
"c  c #F5D134",
"v  c #F6D738",
"b  c #F6D837",
"n  c #F6D738",
"m  c #F3CF31",
"M  c #F6D855",
"N  c #F3CF39",
"B  c #EBBE31",
"V  c #D9A032",
"C  c #D59B33",
"Z  c #E3B132",
"A  c #F3CB2F",
"S  c #EEBE30",
"D  c #EEC130",
"F  c #F5D736",
"G  c #F6D637",
"H  c #F6D435",
"J  c #D79F33",
"K  c #E9BB30",
"L  c #EEC530",
"P  c #E1AE31",
"I  c #F0C830",
"U  c #EEBF30",
"Y  c #EDBD31",
"T  c #F4CF33",
"R  c #F6D737",
"E  c #F3CD33",
"W  c #D9A233",
"Q  c #E3B332",
"!  c #F2CB30",
"~  c #EEBF31",
"^  c #F0C831",
"/  c #FFFF40",
"(  c None",
")  c #F4D033",
"_  c #F5D44B",
"`  c #ECBF31",
"'  c #D79E32",
"]  c #E8BB31",
"[  c #F2CA2F",
"{  c #EDBD30",
"}  c #F0C531",
"|  c #F6D637",
" . c #FFFF33",
".. c #F5D346",
"X. c #E4B431",
"o. c #EDC230",
"O. c #F1C530",
"+. c #EFC431",
"@. c #F5D244",
"#. c #EABD31",
"$. c #DEA932",
"%. c #E5B531",
"&. c #F2CB2F",
"*. c #EDBF30",
"=. c #F0C731",
"-. c #F5D436",
";. c #F4D13C",
":. c #ECC030",
">. c #D69C33",
",. c #E8BA30",
"<. c #ECC130",
"1. c #EFC230",
"2. c #F4CE34",
"3. c #F3CE31",
"4. c #E6B631",
"5. c #D69D33",
"6. c #E6B730",
"7. c #EFC130",
"8. c #F5D333",
"9. c #F1C72F",
"0. c #EBBD2F",
"q. c #DDA932",
"w. c #EDBE30",
"e. c #F4D034",
"r. c #F6D637",
"t. c #F1C932",
"y. c #EFC030",
"u. c #F2CB33",
"i. c #F6D637",
"p. c #F9DB37",
"a. c #F7D637",
"s. c #F3CF34",
"d. c #EFC231",
"f. c #F4D235",
"g. c #F5D836",
"h. c #F6D737",
"j. c #F3CE34",
"k. c #F0C631",
"l. c #F0C230",
"z. c #F4D134",
"x. c #F6D738",
"c. c #F7D635",
"v. c #F6D736",
/* pixels */
"                                                                ",
"                                                                ",
"                                                                ",
"                                                                ",
"                                                                ",
"                                                                ",
"                                                                ",
"                        . X o O O o + .                         ",
"                    @ # $ % & * * & % $ # =                     ",
"                  - ; % : > , < 1 2 3 : & 4 5                   ",
"                6 7 8 9 0 < q w e r t y u i p a                 ",
"                s d f g h j j k l j j j z x c v                 ",
"              b n m M N j j B V C Z A j j S D n F               ",
"              G H q 2 j j j J K L P I j j U Y T G               ",
"              R & 1 E j j j W Q ! j j j j ~ Y ^ R               ",
"            / ( ) _ j j j j ` ' ' ] j j [ { Y } |  .            ",
"             .| ) ..j j j j j A X.C o.j O.Y Y +.( /             ",
"              R & @.j j j L #.j j $.%.&.*.Y Y =.R               ",
"              G -.;.j j j :.>.,.#.>.<.1.Y Y Y 2.G               ",
"              b n 3.3 j j j 4.5.C 6.7.Y Y Y 7.n F               ",
"                v 8.9.A j j j 0.q.{ Y Y Y w.e.s                 ",
"                @ r.t.{ ~ y.w.Y Y Y Y Y w.u.i.p.                ",
"                  a.| s.U Y Y Y Y Y Y d.f.( b                   ",
"                    g.# h.j.k.d.l.^ z.n x.g.                    ",
"                        c.+ o O O o X v.                        ",
"                                                                ",
"                                                                ",
"                                                                ",
"                                                                ",
"                                                                ",
"                                                                ",
"                                                                "
};
